<?xml version="1.0" standalone="no"?>
<!DOCTYPE svg PUBLIC "-//W3C//DTD SVG 20010904//EN"
 "http://www.w3.org/TR/2001/REC-SVG-20010904/DTD/svg10.dtd">
<svg version="1.0" xmlns="http://www.w3.org/2000/svg"
 width="537.000000pt" height="465.000000pt" viewBox="0 0 537.000000 465.000000"
 preserveAspectRatio="xMidYMid meet">

<g transform="translate(0.000000,465.000000) scale(0.100000,-0.100000)"
fill="#000000" stroke="none">
<path d="M2360 4565 c-161 -27 -355 -109 -414 -174 -17 -19 -18 -23 -5 -36 13
-13 21 -10 64 21 220 158 544 196 907 108 37 -9 68 -20 68 -23 0 -4 -46 -15
-102 -25 -205 -36 -390 -87 -582 -160 l-68 -27 -156 17 c-135 15 -174 16 -289
6 -325 -30 -506 -104 -684 -281 -89 -90 -172 -231 -200 -343 -12 -46 -19 -54
-104 -118 -261 -196 -395 -435 -395 -702 0 -69 2 -78 19 -78 16 0 19 11 24 98
13 210 81 357 246 525 74 76 160 147 178 147 5 0 7 -19 5 -42 -3 -22 1 -82 8
-131 36 -264 195 -467 387 -493 63 -8 129 18 167 68 36 48 35 109 -5 218 -36
100 -48 234 -30 320 17 82 84 211 140 272 l49 53 188 0 c166 -1 203 -4 309
-27 122 -27 259 -78 253 -94 -2 -5 -23 -22 -48 -39 -25 -16 -60 -52 -77 -79
-28 -40 -33 -58 -33 -106 0 -96 65 -166 181 -196 109 -28 229 2 269 68 24 39
26 110 6 160 -22 51 -86 129 -135 162 l-43 30 44 22 c93 46 448 154 509 154
22 0 136 -121 203 -215 60 -82 66 -95 121 -232 44 -111 75 -161 128 -210 84
-77 181 -110 301 -100 160 13 269 86 319 215 48 122 -2 343 -117 513 l-36 54
24 3 c46 6 253 -46 396 -100 81 -30 93 -42 127 -120 47 -110 64 -180 70 -295
10 -180 -32 -288 -148 -382 -61 -50 -62 -51 -50 -69 12 -20 62 8 121 67 99 99
143 259 120 436 -10 85 -47 222 -71 268 -15 27 0 21 81 -31 190 -123 308 -279
365 -487 21 -73 24 -293 5 -350 -13 -40 -3 -62 23 -52 34 13 48 252 22 379
-53 257 -211 457 -478 603 -53 29 -73 47 -94 84 -87 150 -259 337 -390 423
-151 100 -329 171 -510 204 -49 9 -173 19 -278 23 -107 4 -199 12 -210 18 -35
19 -205 61 -318 77 -126 19 -271 19 -377 1z m868 -196 c204 -98 357 -203 501
-344 l83 -81 -218 -1 c-195 0 -309 -9 -524 -38 -42 -6 -49 -4 -110 42 -149
112 -416 234 -587 268 -18 4 -35 10 -37 14 -6 9 193 78 329 115 96 26 359 72
429 75 16 0 75 -21 134 -50z m282 36 c274 -44 517 -170 704 -363 74 -77 182
-220 172 -229 -3 -3 -36 6 -74 20 -61 22 -109 35 -251 68 -23 5 -74 14 -112
19 -55 6 -74 13 -88 32 -112 142 -379 350 -555 434 -31 14 -56 28 -56 30 0 10
175 2 260 -11z m-1447 -182 c37 -3 67 -9 67 -12 0 -3 -49 -29 -108 -58 -100
-49 -292 -168 -337 -210 -105 -96 -142 -121 -190 -128 -134 -19 -361 -88 -467
-141 -37 -19 -70 -34 -73 -34 -12 0 -3 36 26 98 120 257 362 427 676 476 96
15 298 20 406 9z m332 -64 c133 -35 189 -56 314 -118 96 -47 234 -131 245
-149 3 -5 -59 -26 -137 -47 -78 -21 -203 -63 -277 -92 l-135 -54 -80 31 c-190
76 -307 99 -544 109 l-144 6 74 57 c178 136 494 304 549 291 14 -3 75 -18 135
-34z m1343 -266 l113 -6 43 -56 c103 -134 159 -277 159 -411 0 -105 -17 -149
-80 -207 -131 -121 -366 -114 -488 14 -42 44 -69 91 -105 183 -51 128 -125
249 -213 351 -43 50 -77 93 -74 96 14 13 285 38 457 41 41 1 126 -1 188 -5z
m-2248 -142 c0 -6 -4 -12 -9 -15 -18 -11 -81 -128 -107 -198 -24 -64 -27 -87
-27 -188 0 -102 3 -125 30 -205 41 -121 44 -138 32 -171 -17 -48 -55 -69 -124
-68 -114 1 -220 86 -292 235 -51 104 -73 200 -73 318 0 77 3 94 19 110 39 39
244 124 391 162 111 29 160 35 160 20z m1002 -173 c91 -76 138 -181 104 -233
-52 -80 -225 -87 -316 -13 -50 40 -65 120 -35 178 16 31 82 88 130 113 35 18
47 13 117 -45z"/>
<path d="M1873 2560 c-124 -25 -202 -121 -203 -248 0 -69 20 -120 67 -169 56
-59 81 -68 178 -68 78 0 95 3 130 24 56 35 84 67 113 129 80 175 -89 371 -285
332z m117 -102 c57 -29 84 -75 84 -144 0 -88 -67 -154 -157 -154 -168 0 -203
259 -42 309 47 15 68 13 115 -11z"/>
<path d="M277 2554 c-4 -4 -7 -112 -7 -241 l0 -233 45 0 45 0 -2 238 -3 237
-35 3 c-20 2 -39 0 -43 -4z"/>
<path d="M560 2320 l0 -240 119 0 c130 0 178 11 236 56 73 55 105 183 69 270
-45 109 -142 154 -336 154 l-88 0 0 -240z m273 121 c42 -26 57 -52 64 -110 7
-57 -12 -98 -60 -135 -28 -22 -46 -26 -108 -28 l-74 -3 -3 140 c-1 76 0 146 3
153 8 22 136 9 178 -17z"/>
<path d="M1170 2320 l0 -240 186 0 185 0 -3 42 -3 42 -120 2 c-66 1 -128 2
-137 3 -15 1 -18 11 -18 51 l0 49 123 3 122 3 3 38 3 37 -125 0 -126 0 0 60 0
60 135 0 135 0 0 45 0 45 -180 0 -180 0 0 -240z"/>
<path d="M2400 2538 c-52 -26 -70 -56 -70 -114 0 -73 28 -94 185 -139 33 -9
68 -24 78 -33 17 -15 24 -77 9 -98 -42 -61 -180 -57 -248 7 -19 17 -22 18 -34
4 -18 -22 -8 -38 46 -65 63 -31 184 -35 227 -7 37 24 67 75 67 114 0 63 -49
98 -192 138 -90 25 -122 82 -78 138 37 47 162 44 206 -4 13 -14 20 -16 31 -8
23 20 14 37 -34 60 -69 33 -137 36 -193 7z"/>
<path d="M2820 2316 l0 -236 25 0 c25 0 25 1 25 79 l0 78 93 6 c60 3 108 12
132 24 107 50 113 182 12 257 -24 17 -46 21 -157 24 l-130 4 0 -236z m250 179
c41 -21 60 -53 60 -100 0 -83 -49 -115 -175 -115 l-85 0 0 115 0 115 85 0 c57
0 96 -5 115 -15z"/>
<path d="M3330 2315 l0 -236 23 3 c21 3 22 8 25 106 l3 102 144 0 145 0 0
-105 c0 -99 1 -105 20 -105 20 0 20 5 18 233 -3 224 -4 232 -23 232 -19 0 -20
-7 -20 -105 l0 -105 -142 -3 -142 -3 -3 108 c-3 103 -4 108 -25 111 l-23 3 0
-236z"/>
<path d="M3908 2483 c-3 -38 -2 -143 0 -235 l5 -168 174 0 c161 0 174 1 171
18 -3 15 -20 17 -156 20 l-152 3 0 68 c0 38 -3 76 -6 85 -5 14 9 16 119 16
133 0 157 4 157 26 0 11 -26 14 -135 14 l-135 0 0 90 0 90 150 0 c143 0 150 1
150 20 0 19 -7 20 -169 20 l-169 0 -4 -67z"/>
<path d="M4420 2316 c0 -228 1 -236 20 -236 18 0 20 8 22 93 l3 92 74 0 74 0
69 -90 c49 -64 76 -91 94 -93 13 -2 24 0 24 5 -1 4 -30 44 -65 88 -36 44 -65
83 -65 88 0 4 10 7 21 7 12 0 39 17 60 39 35 35 39 44 39 89 0 66 -15 97 -59
125 -32 19 -52 22 -173 25 l-138 4 0 -236z m301 156 c33 -37 36 -68 13 -117
-21 -44 -55 -55 -175 -55 l-99 0 0 106 0 106 116 -4 116 -3 29 -33z"/>
<path d="M4967 2543 c-9 -8 -9 -410 -1 -441 6 -22 7 -22 178 -20 144 3 171 5
171 18 0 13 -25 15 -153 18 l-153 3 3 86 3 87 58 -3 c96 -4 207 9 207 25 0 11
-27 14 -135 14 l-135 0 0 90 0 90 150 0 c143 0 150 1 150 20 0 19 -7 20 -168
20 -93 0 -172 -3 -175 -7z"/>
<path d="M4735 1874 c-8 -20 -15 -38 -15 -40 0 -2 -20 -32 -44 -66 -176 -251
-478 -365 -873 -330 -134 12 -259 36 -277 53 -6 5 0 20 16 36 38 42 82 127 75
146 -10 26 -36 20 -48 -10 -14 -37 -75 -118 -103 -136 -21 -14 -28 -14 -90 9
-37 13 -86 33 -109 45 -195 96 -312 103 -347 19 -29 -70 30 -152 135 -187 55
-18 185 -23 275 -10 l55 8 -50 -46 c-112 -103 -245 -180 -404 -234 -177 -61
-371 -170 -487 -273 -107 -94 -131 -119 -191 -193 -116 -145 -171 -238 -254
-428 -45 -103 -46 -113 -20 -120 15 -4 22 3 31 27 83 220 193 403 333 552 163
174 360 302 590 383 120 42 223 91 295 140 82 55 182 149 182 170 0 10 14 28
31 40 28 21 36 22 68 12 160 -48 469 -65 642 -36 200 33 355 108 474 230 68
69 125 152 155 223 11 29 11 35 -1 43 -23 14 -28 11 -44 -27z m-1540 -315 c66
-28 136 -57 155 -66 l35 -14 -30 -17 c-23 -12 -59 -16 -150 -16 -106 -1 -125
2 -162 21 -40 22 -83 69 -83 93 0 6 5 20 10 31 19 35 90 25 225 -32z"/>
<path d="M555 1831 c-6 -11 63 -127 115 -192 19 -24 78 -89 132 -144 88 -88
98 -103 98 -135 0 -110 73 -241 186 -334 165 -136 389 -194 644 -167 67 7 123
11 126 9 8 -8 -93 -294 -146 -415 -29 -65 -75 -160 -102 -212 -48 -91 -54
-121 -23 -121 33 0 207 383 285 627 l45 140 85 27 c164 53 348 152 432 234 54
53 73 96 59 135 -45 117 -298 44 -496 -144 -61 -57 -127 -72 -289 -66 -112 4
-144 9 -221 35 -158 53 -330 148 -465 257 -64 52 -70 61 -70 94 0 44 27 104
66 150 31 37 125 101 148 101 19 0 28 14 20 34 -9 24 -30 20 -98 -18 -94 -53
-157 -131 -172 -213 -3 -18 -10 -35 -14 -38 -15 -9 -198 194 -252 279 -49 79
-77 102 -93 77z m462 -525 c191 -144 422 -251 602 -277 80 -11 238 -8 288 7
l22 6 -19 -40 c-11 -23 -20 -46 -20 -51 0 -41 -263 -65 -433 -41 -88 13 -209
60 -286 112 -68 45 -150 130 -176 181 -29 56 -54 147 -40 147 3 0 31 -20 62
-44z m1428 -36 c19 -59 -107 -160 -315 -254 -89 -41 -179 -71 -187 -63 -2 3 7
30 22 61 57 121 293 275 422 276 43 0 53 -3 58 -20z"/>
</g>
</svg>
