<?xml version="1.0" standalone="no"?>
<!DOCTYPE svg PUBLIC "-//W3C//DTD SVG 20010904//EN"
 "http://www.w3.org/TR/2001/REC-SVG-20010904/DTD/svg10.dtd">
<svg version="1.0" xmlns="http://www.w3.org/2000/svg"
 width="372.000000pt" height="350.000000pt" viewBox="0 0 372.000000 350.000000"
 preserveAspectRatio="xMidYMid meet">

<g transform="translate(0.000000,350.000000) scale(0.100000,-0.100000)"
fill="#000000" stroke="none">
<path d="M1710 3399 c-242 -22 -548 -130 -795 -281 -146 -90 -199 -131 -306
-237 -117 -117 -237 -293 -325 -476 -34 -71 -65 -141 -69 -155 -3 -14 10 7 30
47 35 71 149 200 235 267 19 15 25 23 12 16 -12 -6 -27 -8 -32 -5 -5 3 -21
-11 -37 -31 -49 -63 -86 -105 -90 -101 -8 9 19 61 64 124 26 36 47 73 48 83 3
32 71 117 189 235 91 90 147 136 223 183 102 63 120 71 107 51 -4 -8 0 -7 15
1 12 6 18 16 15 22 -5 8 -1 9 10 5 10 -4 15 -3 11 3 -3 5 3 14 14 19 25 14 34
14 25 0 -4 -8 0 -8 15 0 11 7 21 16 21 21 0 5 7 7 15 4 8 -4 17 1 21 10 3 9
10 13 15 10 5 -3 9 -1 9 4 0 5 6 9 13 10 6 0 72 24 146 52 74 29 182 63 240
76 250 57 589 37 866 -53 83 -26 263 -111 349 -165 318 -197 604 -578 717
-953 9 -33 18 -53 18 -43 1 27 -57 197 -94 273 -18 39 -57 108 -85 155 -303
499 -751 779 -1326 829 -131 12 -159 12 -284 0z"/>
<path d="M1843 3343 c15 -2 39 -2 55 0 15 2 2 4 -28 4 -30 0 -43 -2 -27 -4z"/>
<path d="M2101 3337 c30 -10 34 -14 23 -24 -7 -7 -32 -17 -56 -22 -64 -15
-147 -45 -203 -74 -68 -36 -51 -34 27 3 214 100 446 90 657 -27 36 -20 85 -54
110 -77 25 -22 40 -34 34 -26 -26 28 -12 30 25 3 77 -57 187 -149 189 -157 1
-4 5 -11 9 -14 4 -4 4 -1 0 6 -15 25 11 11 45 -25 57 -62 105 -125 163 -217
30 -48 56 -82 58 -75 2 6 17 -18 32 -55 16 -36 32 -63 37 -60 5 3 6 -2 3 -10
-3 -9 -1 -16 6 -16 6 0 9 -4 6 -9 -4 -5 -3 -11 1 -13 5 -1 24 -34 43 -73 19
-38 50 -92 68 -120 32 -48 51 -71 40 -50 -3 6 -40 82 -82 170 -85 176 -198
380 -234 423 -18 21 -16 15 9 -30 17 -32 29 -58 26 -58 -3 0 -24 28 -48 63
-130 192 -185 245 -368 361 -193 121 -386 187 -616 210 l-40 4 36 -11z"/>
<path d="M1768 3333 c6 -2 18 -2 25 0 6 3 1 5 -13 5 -14 0 -19 -2 -12 -5z"/>
<path d="M1838 3293 c7 -3 16 -2 19 1 4 3 -2 6 -13 5 -11 0 -14 -3 -6 -6z"/>
<path d="M1720 3258 c-14 -6 -52 -19 -85 -29 -35 -10 -50 -18 -36 -18 24 -1
24 -1 5 -16 -10 -9 19 3 66 26 47 23 87 44 89 46 9 7 -15 1 -39 -9z"/>
<path d="M1180 3180 c-8 -5 -10 -10 -5 -10 6 0 17 5 25 10 8 5 11 10 5 10 -5
0 -17 -5 -25 -10z"/>
<path d="M1205 3070 c-3 -6 1 -7 9 -4 18 7 21 14 7 14 -6 0 -13 -4 -16 -10z"/>
<path d="M1330 2860 c-9 -6 -10 -10 -3 -10 6 0 15 5 18 10 8 12 4 12 -15 0z"/>
<path d="M619 2813 c-13 -16 -12 -17 4 -4 16 13 21 21 13 21 -2 0 -10 -8 -17
-17z"/>
<path d="M1108 2773 c7 -3 16 -2 19 1 4 3 -2 6 -13 5 -11 0 -14 -3 -6 -6z"/>
<path d="M1058 2763 c7 -3 16 -2 19 1 4 3 -2 6 -13 5 -11 0 -14 -3 -6 -6z"/>
<path d="M958 2743 c6 -2 18 -2 25 0 6 3 1 5 -13 5 -14 0 -19 -2 -12 -5z"/>
<path d="M918 2733 c7 -3 16 -2 19 1 4 3 -2 6 -13 5 -11 0 -14 -3 -6 -6z"/>
<path d="M878 2723 c7 -3 16 -2 19 1 4 3 -2 6 -13 5 -11 0 -14 -3 -6 -6z"/>
<path d="M584 2688 c-16 -18 -20 -25 -8 -15 11 9 25 17 31 17 5 0 10 7 10 15
0 19 2 20 -33 -17z"/>
<path d="M489 2683 c-13 -16 -12 -17 4 -4 9 7 17 15 17 17 0 8 -8 3 -21 -13z"/>
<path d="M2891 2684 c0 -11 3 -14 6 -6 3 7 2 16 -1 19 -3 4 -6 -2 -5 -13z"/>
<path d="M655 2660 c-3 -6 1 -7 9 -4 18 7 21 14 7 14 -6 0 -13 -4 -16 -10z"/>
<path d="M605 2640 c-3 -6 1 -7 9 -4 18 7 21 14 7 14 -6 0 -13 -4 -16 -10z"/>
<path d="M990 2635 c-47 -7 -123 -26 -169 -40 -94 -30 -237 -93 -229 -100 3
-3 50 15 104 39 54 25 134 54 176 65 99 26 310 37 398 21 88 -15 191 -46 215
-64 18 -13 17 -14 -19 -6 -22 5 -85 11 -140 13 -56 3 -85 3 -66 1 114 -14 241
-39 285 -56 57 -22 132 -80 145 -112 5 -11 24 -37 41 -56 24 -27 29 -30 19
-10 -44 89 -148 184 -266 243 -126 64 -331 89 -494 62z"/>
<path d="M1068 2583 c7 -3 16 -2 19 1 4 3 -2 6 -13 5 -11 0 -14 -3 -6 -6z"/>
<path d="M3190 2565 c0 -5 5 -17 10 -25 5 -8 10 -10 10 -5 0 6 -5 17 -10 25
-5 8 -10 11 -10 5z"/>
<path d="M2912 2530 c0 -19 2 -27 5 -17 2 9 2 25 0 35 -3 9 -5 1 -5 -18z"/>
<path d="M1108 2493 c6 -2 18 -2 25 0 6 3 1 5 -13 5 -14 0 -19 -2 -12 -5z"/>
<path d="M1328 2493 c7 -3 16 -2 19 1 4 3 -2 6 -13 5 -11 0 -14 -3 -6 -6z"/>
<path d="M527 2460 c-26 -16 -47 -32 -47 -34 0 -3 23 9 50 26 44 27 57 38 47
38 -2 0 -24 -13 -50 -30z"/>
<path d="M3041 2464 c0 -11 3 -14 6 -6 3 7 2 16 -1 19 -3 4 -6 -2 -5 -13z"/>
<path d="M1208 2433 c7 -3 16 -2 19 1 4 3 -2 6 -13 5 -11 0 -14 -3 -6 -6z"/>
<path d="M1318 2433 c7 -3 16 -2 19 1 4 3 -2 6 -13 5 -11 0 -14 -3 -6 -6z"/>
<path d="M3051 2424 c0 -11 3 -14 6 -6 3 7 2 16 -1 19 -3 4 -6 -2 -5 -13z"/>
<path d="M444 2398 l-19 -23 23 19 c21 18 27 26 19 26 -2 0 -12 -10 -23 -22z"/>
<path d="M2931 2404 c0 -11 3 -14 6 -6 3 7 2 16 -1 19 -3 4 -6 -2 -5 -13z"/>
<path d="M509 2393 c-13 -16 -12 -17 4 -4 9 7 17 15 17 17 0 8 -8 3 -21 -13z"/>
<path d="M3061 2374 c0 -11 3 -14 6 -6 3 7 2 16 -1 19 -3 4 -6 -2 -5 -13z"/>
<path d="M3171 2354 c0 -11 3 -14 6 -6 3 7 2 16 -1 19 -3 4 -6 -2 -5 -13z"/>
<path d="M429 2323 l-34 -38 38 34 c20 19 37 36 37 38 0 8 -8 0 -41 -34z"/>
<path d="M1238 2353 c6 -2 18 -2 25 0 6 3 1 5 -13 5 -14 0 -19 -2 -12 -5z"/>
<path d="M1408 2353 c6 -2 18 -2 25 0 6 3 1 5 -13 5 -14 0 -19 -2 -12 -5z"/>
<path d="M3072 2320 c0 -14 2 -19 5 -12 2 6 2 18 0 25 -3 6 -5 1 -5 -13z"/>
<path d="M349 2313 c-13 -16 -12 -17 4 -4 9 7 17 15 17 17 0 8 -8 3 -21 -13z"/>
<path d="M1323 2283 c9 -2 23 -2 30 0 6 3 -1 5 -18 5 -16 0 -22 -2 -12 -5z"/>
<path d="M1433 2283 c9 -2 23 -2 30 0 6 3 -1 5 -18 5 -16 0 -22 -2 -12 -5z"/>
<path d="M1775 2263 c3 -12 8 -30 10 -40 2 -10 16 -49 30 -86 14 -37 25 -78
25 -90 -1 -21 -1 -21 -15 3 -9 15 -15 19 -15 10 -1 -12 -5 -10 -18 5 -9 11
-26 22 -37 23 -11 2 -33 10 -50 17 -37 16 -150 35 -196 34 -19 -1 3 -7 47 -14
102 -15 213 -65 258 -115 32 -35 79 -138 74 -163 -1 -7 11 -50 25 -98 30 -95
33 -117 11 -77 -9 17 -20 25 -29 22 -14 -6 -94 29 -105 46 -11 16 -109 52
-178 66 -161 31 -330 3 -420 -71 -9 -8 -44 -34 -77 -59 -33 -24 -80 -66 -105
-92 -38 -41 -35 -39 20 11 36 33 92 78 125 99 33 22 63 44 66 49 15 21 148 59
224 64 81 4 89 -7 14 -21 -19 -3 -44 -13 -55 -21 -17 -13 -16 -14 13 -4 47 16
99 8 95 -13 -4 -22 5 -23 25 -2 13 13 34 15 106 12 61 -2 92 -7 95 -15 2 -7 9
-13 16 -13 25 0 138 -83 168 -123 17 -23 50 -82 75 -132 38 -78 45 -85 25 -25
-2 8 27 -32 65 -90 87 -131 228 -267 328 -316 l30 -15 -25 21 -25 21 39 -16
c60 -24 57 -18 -10 19 -121 64 -203 138 -290 256 -94 128 -167 283 -209 445
-14 55 -42 160 -61 234 -37 143 -64 227 -83 257 -11 18 -12 17 -6 -3z"/>
<path d="M3082 2260 c0 -14 2 -19 5 -12 2 6 2 18 0 25 -3 6 -5 1 -5 -13z"/>
<path d="M365 2250 c-10 -11 -16 -22 -14 -24 2 -2 12 7 22 20 22 29 17 32 -8
4z"/>
<path d="M270 2220 c-12 -16 -19 -30 -16 -30 2 0 14 14 26 30 12 17 19 30 16
30 -2 0 -14 -13 -26 -30z"/>
<path d="M3191 2234 c0 -11 3 -14 6 -6 3 7 2 16 -1 19 -3 4 -6 -2 -5 -13z"/>
<path d="M2990 2231 c0 -6 4 -13 10 -16 6 -3 7 1 4 9 -7 18 -14 21 -14 7z"/>
<path d="M3091 2156 c-1 -46 -4 -57 -15 -53 -10 4 -7 -11 11 -51 29 -63 39
-80 28 -43 -4 13 -11 65 -15 115 -6 77 -7 82 -9 32z"/>
<path d="M3421 2190 c-1 -3 12 -37 29 -75 16 -39 29 -63 29 -55 0 15 -56 140
-58 130z"/>
<path d="M220 2150 c-6 -11 -8 -20 -6 -20 3 0 10 9 16 20 6 11 8 20 6 20 -3 0
-10 -9 -16 -20z"/>
<path d="M1363 2133 c9 -2 25 -2 35 0 9 3 1 5 -18 5 -19 0 -27 -2 -17 -5z"/>
<path d="M162 2075 c-6 -27 -14 -72 -16 -100 -5 -44 -4 -46 4 -15 5 19 20 64
34 98 15 39 20 59 12 52 -11 -8 -15 -8 -18 2 -3 7 -10 -9 -16 -37z"/>
<path d="M3514 2038 c4 -52 -8 -65 -18 -22 -4 15 -9 24 -12 21 -3 -3 2 -29 10
-58 24 -87 28 -148 17 -254 -24 -232 -83 -371 -218 -515 -48 -52 -72 -82 -52
-67 19 15 69 67 109 116 40 50 77 88 81 86 4 -3 10 7 13 21 4 15 9 24 12 21 7
-7 -41 -148 -71 -208 -14 -27 -23 -49 -20 -49 11 0 64 121 96 217 18 56 35
101 37 99 9 -9 -88 -287 -128 -365 -17 -34 -28 -61 -25 -61 11 0 86 164 118
261 58 172 68 235 73 449 4 148 1 214 -10 275 -10 54 -14 64 -12 33z"/>
<path d="M245 2059 c-4 -6 -5 -12 -2 -15 2 -3 7 2 10 11 7 17 1 20 -8 4z"/>
<path d="M1165 2028 c-21 -12 -141 -110 -234 -191 -30 -26 -57 -43 -61 -38 -3
6 -17 -11 -31 -37 -14 -26 -36 -65 -49 -87 -28 -48 -18 -39 39 38 75 100 179
186 268 223 19 8 32 18 29 21 -4 4 10 24 31 45 39 40 40 44 8 26z"/>
<path d="M3231 1974 c0 -11 3 -14 6 -6 3 7 2 16 -1 19 -3 4 -6 -2 -5 -13z"/>
<path d="M1296 1966 c23 -7 46 -16 53 -20 6 -4 11 -5 11 -2 0 11 -59 36 -82
35 -16 0 -10 -4 18 -13z"/>
<path d="M1578 1908 c5 -5 16 -8 23 -6 8 3 3 7 -10 11 -17 4 -21 3 -13 -5z"/>
<path d="M133 1865 c0 -27 2 -38 4 -22 2 15 2 37 0 50 -2 12 -4 0 -4 -28z"/>
<path d="M1620 1896 c0 -2 7 -7 16 -10 8 -3 12 -2 9 4 -6 10 -25 14 -25 6z"/>
<path d="M161 1840 c-7 -22 -16 -38 -21 -35 -17 11 -21 -38 -13 -163 l8 -127
7 120 c3 66 14 147 23 179 18 66 15 88 -4 26z"/>
<path d="M3251 1863 c-1 -26 15 -73 26 -73 5 0 9 21 9 48 1 26 0 37 -3 25 -2
-13 -8 -23 -13 -23 -5 0 -11 10 -13 23 -4 22 -4 22 -6 0z"/>
<path d="M3171 1794 c0 -11 3 -14 6 -6 3 7 2 16 -1 19 -3 4 -6 -2 -5 -13z"/>
<path d="M3181 1744 c0 -11 3 -14 6 -6 3 7 2 16 -1 19 -3 4 -6 -2 -5 -13z"/>
<path d="M321 1734 c0 -11 3 -14 6 -6 3 7 2 16 -1 19 -3 4 -6 -2 -5 -13z"/>
<path d="M1479 1713 c-13 -16 -12 -17 4 -4 9 7 17 15 17 17 0 8 -8 3 -21 -13z"/>
<path d="M1299 1683 c-13 -16 -12 -17 4 -4 9 7 17 15 17 17 0 8 -8 3 -21 -13z"/>
<path d="M3192 1680 c0 -14 2 -19 5 -12 2 6 2 18 0 25 -3 6 -5 1 -5 -13z"/>
<path d="M1405 1648 l-40 -43 43 40 c39 36 47 45 39 45 -2 0 -21 -19 -42 -42z"/>
<path d="M3282 1635 c0 -16 2 -22 5 -12 2 9 2 23 0 30 -3 6 -5 -1 -5 -18z"/>
<path d="M201 1614 c0 -11 3 -14 6 -6 3 7 2 16 -1 19 -3 4 -6 -2 -5 -13z"/>
<path d="M748 1608 c-9 -13 -27 -47 -42 -76 -15 -29 -31 -50 -35 -47 -5 3 -7
-5 -4 -17 4 -19 3 -20 -6 -8 -9 12 -10 9 -5 -15 3 -19 2 -25 -4 -17 -6 9 -9 4
-9 -17 0 -36 -22 -93 -34 -86 -4 3 -6 -18 -3 -47 7 -73 25 -188 29 -188 2 0 1
39 -2 88 -7 113 19 221 86 355 49 96 57 118 29 75z"/>
<path d="M391 1604 c0 -11 3 -14 6 -6 3 7 2 16 -1 19 -3 4 -6 -2 -5 -13z"/>
<path d="M1200 1585 c-18 -19 -32 -36 -29 -38 2 -2 19 14 38 35 42 48 36 50
-9 3z"/>
<path d="M1339 1573 c-13 -16 -12 -17 4 -4 9 7 17 15 17 17 0 8 -8 3 -21 -13z"/>
<path d="M192 1550 c0 -14 2 -19 5 -12 2 6 2 18 0 25 -3 6 -5 1 -5 -13z"/>
<path d="M3271 1554 c0 -11 3 -14 6 -6 3 7 2 16 -1 19 -3 4 -6 -2 -5 -13z"/>
<path d="M611 1534 c0 -11 3 -14 6 -6 3 7 2 16 -1 19 -3 4 -6 -2 -5 -13z"/>
<path d="M941 1508 c-14 -23 -14 -23 8 -4 22 20 25 26 13 26 -4 0 -13 -10 -21
-22z"/>
<path d="M182 1490 c0 -19 2 -27 5 -17 2 9 2 25 0 35 -3 9 -5 1 -5 -18z"/>
<path d="M464 1425 c0 -55 1 -76 3 -47 2 29 2 74 0 100 -2 26 -3 2 -3 -53z"/>
<path d="M542 1500 c0 -14 2 -19 5 -12 2 6 2 18 0 25 -3 6 -5 1 -5 -13z"/>
<path d="M3192 1495 c0 -16 2 -22 5 -12 2 9 2 23 0 30 -3 6 -5 -1 -5 -18z"/>
<path d="M312 1480 c0 -14 2 -19 5 -12 2 6 2 18 0 25 -3 6 -5 1 -5 -13z"/>
<path d="M142 1465 c0 -16 2 -22 5 -12 2 9 2 23 0 30 -3 6 -5 -1 -5 -18z"/>
<path d="M392 1430 c0 -19 2 -27 5 -17 2 9 2 25 0 35 -3 9 -5 1 -5 -18z"/>
<path d="M171 1430 c-1 -21 -3 -22 -12 -10 -18 26 -2 -60 31 -160 70 -213 166
-373 312 -517 114 -113 359 -295 489 -362 159 -84 381 -147 610 -176 125 -15
397 -19 479 -7 25 4 -40 7 -145 7 -216 0 -341 14 -504 57 -63 16 -123 27 -133
25 -10 -3 -16 -2 -14 1 2 4 -28 19 -67 34 -43 16 -64 21 -52 12 19 -15 18 -16
-15 -9 -55 11 -175 70 -265 130 -81 53 -210 170 -254 230 l-23 30 21 -37 c11
-21 16 -38 12 -38 -20 0 -205 181 -257 250 -100 135 -182 335 -203 500 -5 36
-9 54 -10 40z"/>
<path d="M885 1420 c-9 -16 -13 -30 -11 -30 3 0 12 14 21 30 9 17 13 30 11 30
-3 0 -12 -13 -21 -30z"/>
<path d="M1221 1369 c-6 -18 -9 -34 -7 -36 2 -2 9 10 15 28 6 18 9 34 7 36 -2
2 -9 -10 -15 -28z"/>
<path d="M322 1360 c0 -14 2 -19 5 -12 2 6 2 18 0 25 -3 6 -5 1 -5 -13z"/>
<path d="M1056 1365 c-9 -26 -7 -32 5 -12 6 10 9 21 6 23 -2 3 -7 -2 -11 -11z"/>
<path d="M541 1344 c0 -11 3 -14 6 -6 3 7 2 16 -1 19 -3 4 -6 -2 -5 -13z"/>
<path d="M3132 1305 c-12 -25 -20 -45 -17 -45 7 0 47 81 43 86 -3 2 -14 -17
-26 -41z"/>
<path d="M3393 1270 c-18 -36 -26 -56 -17 -45 22 28 56 95 52 103 -2 4 -18
-22 -35 -58z"/>
<path d="M402 1300 c0 -14 2 -19 5 -12 2 6 2 18 0 25 -3 6 -5 1 -5 -13z"/>
<path d="M831 1274 c0 -11 3 -14 6 -6 3 7 2 16 -1 19 -3 4 -6 -2 -5 -13z"/>
<path d="M1191 1274 c0 -11 3 -14 6 -6 3 7 2 16 -1 19 -3 4 -6 -2 -5 -13z"/>
<path d="M1182 1230 c0 -14 2 -19 5 -12 2 6 2 18 0 25 -3 6 -5 1 -5 -13z"/>
<path d="M341 1224 c0 -11 3 -14 6 -6 3 7 2 16 -1 19 -3 4 -6 -2 -5 -13z"/>
<path d="M823 1180 c0 -30 2 -43 4 -27 2 15 2 39 0 55 -2 15 -4 2 -4 -28z"/>
<path d="M481 1204 c0 -11 3 -14 6 -6 3 7 2 16 -1 19 -3 4 -6 -2 -5 -13z"/>
<path d="M3019 1151 c-79 -80 -161 -124 -276 -146 l-78 -15 71 4 c70 5 190 33
180 43 -3 3 9 17 27 31 53 42 107 95 129 125 10 15 18 27 16 26 -2 0 -33 -31
-69 -68z"/>
<path d="M1013 1135 c0 -44 2 -61 4 -37 2 23 2 59 0 80 -2 20 -4 1 -4 -43z"/>
<path d="M1172 1175 c0 -16 2 -22 5 -12 2 9 2 23 0 30 -3 6 -5 -1 -5 -18z"/>
<path d="M1371 1184 c0 -11 3 -14 6 -6 3 7 2 16 -1 19 -3 4 -6 -2 -5 -13z"/>
<path d="M2140 1180 c6 -11 13 -20 16 -20 2 0 0 9 -6 20 -6 11 -13 20 -16 20
-2 0 0 -9 6 -20z"/>
<path d="M3315 1144 c-9 -15 -12 -23 -6 -20 11 7 35 46 28 46 -3 0 -12 -12
-22 -26z"/>
<path d="M1362 1120 c0 -14 2 -19 5 -12 2 6 2 18 0 25 -3 6 -5 1 -5 -13z"/>
<path d="M1163 1060 c0 -41 2 -58 4 -37 2 20 2 54 0 75 -2 20 -4 3 -4 -38z"/>
<path d="M3335 1090 c-9 -16 -13 -30 -11 -30 3 0 12 14 21 30 9 17 13 30 11
30 -3 0 -12 -13 -21 -30z"/>
<path d="M832 1075 c0 -11 4 -31 8 -45 6 -20 8 -21 8 -5 0 11 -4 31 -8 45 -6
20 -8 21 -8 5z"/>
<path d="M641 1064 c0 -11 3 -14 6 -6 3 7 2 16 -1 19 -3 4 -6 -2 -5 -13z"/>
<path d="M3300 1030 c-6 -11 -8 -20 -6 -20 3 0 10 9 16 20 6 11 8 20 6 20 -3
0 -10 -9 -16 -20z"/>
<path d="M2570 1010 c25 -8 87 -13 79 -6 -2 2 -26 6 -54 9 -34 4 -42 3 -25 -3z"/>
<path d="M3299 958 c-66 -105 -264 -336 -277 -323 -3 2 -41 -29 -84 -71 -152
-145 -328 -235 -603 -310 -51 -14 -71 -22 -47 -19 67 8 298 88 392 135 181 91
338 218 479 387 88 105 186 242 178 249 -2 3 -19 -19 -38 -48z m-279 -331 c0
-2 -17 -19 -37 -38 l-38 -34 34 38 c33 34 41 42 41 34z"/>
<path d="M1172 955 c0 -16 2 -22 5 -12 2 9 2 23 0 30 -3 6 -5 -1 -5 -18z"/>
<path d="M1362 955 c0 -16 2 -22 5 -12 2 9 2 23 0 30 -3 6 -5 -1 -5 -18z"/>
<path d="M2588 973 c7 -3 16 -2 19 1 4 3 -2 6 -13 5 -11 0 -14 -3 -6 -6z"/>
<path d="M2648 963 c12 -2 30 -2 40 0 9 3 -1 5 -23 4 -22 0 -30 -2 -17 -4z"/>
<path d="M2843 963 c9 -2 25 -2 35 0 9 3 1 5 -18 5 -19 0 -27 -2 -17 -5z"/>
<path d="M2738 953 c12 -2 30 -2 40 0 9 3 -1 5 -23 4 -22 0 -30 -2 -17 -4z"/>
<path d="M870 935 c0 -5 5 -17 10 -25 5 -8 10 -10 10 -5 0 6 -5 17 -10 25 -5
8 -10 11 -10 5z"/>
<path d="M1182 905 c0 -11 3 -29 8 -40 11 -25 11 1 0 35 -6 20 -8 21 -8 5z"/>
<path d="M1372 890 c0 -14 2 -19 5 -12 2 6 2 18 0 25 -3 6 -5 1 -5 -13z"/>
<path d="M1381 844 c0 -11 3 -14 6 -6 3 7 2 16 -1 19 -3 4 -6 -2 -5 -13z"/>
<path d="M2980 850 c-8 -5 -10 -10 -5 -10 6 0 17 5 25 10 8 5 11 10 5 10 -5 0
-17 -5 -25 -10z"/>
<path d="M910 841 c0 -6 4 -13 10 -16 6 -3 7 1 4 9 -7 18 -14 21 -14 7z"/>
<path d="M1201 824 c0 -11 3 -14 6 -6 3 7 2 16 -1 19 -3 4 -6 -2 -5 -13z"/>
<path d="M2888 813 c7 -3 16 -2 19 1 4 3 -2 6 -13 5 -11 0 -14 -3 -6 -6z"/>
<path d="M3075 737 c-44 -46 -105 -105 -135 -131 -30 -27 -41 -39 -25 -28 61
42 145 119 195 180 29 34 50 62 48 62 -2 0 -39 -38 -83 -83z"/>
<path d="M1210 791 c0 -6 4 -13 10 -16 6 -3 7 1 4 9 -7 18 -14 21 -14 7z"/>
<path d="M2648 793 c6 -2 18 -2 25 0 6 3 1 5 -13 5 -14 0 -19 -2 -12 -5z"/>
<path d="M2783 793 c9 -2 25 -2 35 0 9 3 1 5 -18 5 -19 0 -27 -2 -17 -5z"/>
<path d="M1170 686 c0 -2 8 -10 18 -17 15 -13 16 -12 3 4 -13 16 -21 21 -21
13z"/>
<path d="M885 660 c10 -11 20 -20 23 -20 3 0 -3 9 -13 20 -10 11 -20 20 -23
20 -3 0 3 -9 13 -20z"/>
<path d="M2778 497 c-37 -23 -66 -43 -64 -44 4 -5 125 67 132 78 7 12 7 12
-68 -34z"/>
<path d="M2583 402 c-62 -26 -110 -48 -108 -50 5 -5 208 77 220 89 12 12 16
13 -112 -39z"/>
<path d="M1040 405 c0 -2 15 -12 33 -20 l32 -16 -25 20 c-24 20 -40 26 -40 16z"/>
<path d="M1540 396 c0 -2 7 -7 16 -10 8 -3 12 -2 9 4 -6 10 -25 14 -25 6z"/>
<path d="M1347 359 c7 -7 15 -10 18 -7 3 3 -2 9 -12 12 -14 6 -15 5 -6 -5z"/>
<path d="M1755 361 c8 -14 156 -69 205 -77 34 -5 40 -9 26 -14 -18 -6 -17 -8
10 -17 21 -7 57 -5 139 9 122 20 288 62 313 79 15 9 14 10 -3 4 -11 -3 -71
-17 -132 -31 -192 -41 -373 -29 -519 35 -24 11 -42 16 -39 12z"/>
<path d="M1394 336 c11 -9 24 -16 30 -16 12 0 7 5 -24 19 -24 11 -24 11 -6 -3z"/>
<path d="M1803 263 c15 -2 37 -2 50 0 12 2 0 4 -28 4 -27 0 -38 -2 -22 -4z"/>
<path d="M2208 223 c6 -2 18 -2 25 0 6 3 1 5 -13 5 -14 0 -19 -2 -12 -5z"/>
<path d="M2153 213 c9 -2 23 -2 30 0 6 3 -1 5 -18 5 -16 0 -22 -2 -12 -5z"/>
</g>
</svg>
